<svg id="e4bJiBWzPcT1" xmlns="http://www.w3.org/2000/svg" xmlns:xlink="http://www.w3.org/1999/xlink" viewBox="0 0 26 26" shape-rendering="geometricPrecision" text-rendering="geometricPrecision"><polygon points="0,-11.261909 10.710712,-3.480121 6.619584,9.111076 -6.619584,9.111076 -10.710712,-3.480121 0,-11.261909" transform="matrix(-.841909 0.53962-.53962-.841909 12.81369 12.450406)" fill="#d2dbed" stroke-width="0"/><polygon points="0,-11.261909 10.710712,-3.480121 6.619584,9.111076 -6.619584,9.111076 -10.710712,-3.480121 0,-11.261909" transform="matrix(-.992216-.124531 0.124531-.992216 13.297401 12.589325)" fill="#d2dbed" stroke-width="0"/><polygon points="0,-9.146077 8.698436,-2.826293 5.375929,7.399332 -5.375929,7.399332 -8.698436,-2.826293 0,-9.146077" transform="matrix(-.495613 0.868544-.868544-.495613 12.825599 12.907266)" fill="#9aef7b" stroke-width="0"/><polygon points="0,-9.146077 8.698436,-2.826293 5.375929,7.399332 -5.375929,7.399332 -8.698436,-2.826293 0,-9.146077" transform="matrix(-.889547 0.456845-.456845-.889547 12.825599 12.907266)" fill="#9aef7b" stroke-width="0"/><polygon points="0,-6.459875 6.143707,-1.996211 3.79702,5.226149 -3.79702,5.226149 -6.143707,-1.996211 0,-6.459875" transform="matrix(.898818 0.438323-.438323 0.898818 12.542664 13.116863)" fill="#e6dd60" stroke-width="0"/><polygon points="0,-3.335674 3.172414,-1.03078 1.96066,2.698617 -1.96066,2.698617 -3.172414,-1.03078 0,-3.335674" transform="matrix(-.776215 0.630468-.630468-.776215 12.612227 13.224912)" fill="#f17f6b" stroke-width="0"/><polygon points="0,-3.335674 3.172414,-1.03078 1.96066,2.698617 -1.96066,2.698617 -3.172414,-1.03078 0,-3.335674" transform="matrix(-.998774-.049508 0.049508-.998774 12.612227 13.224912)" fill="#f17f6b" stroke-width="0"/></svg>
