<svg id="e1oRyt2U9iL1" xmlns="http://www.w3.org/2000/svg" xmlns:xlink="http://www.w3.org/1999/xlink" viewBox="0 0 17 17" shape-rendering="geometricPrecision" text-rendering="geometricPrecision"><path d="M4.3429,0h7.6022c2.7704,0,4.3512,1.5644,4.3512,4.343v7.6103c0,2.7622-1.5726,4.343-4.343,4.343h-7.6104C1.5644,16.2963,0,14.7155,0,11.9533L0,4.343C0,1.5644,1.5644,0,4.3429,0ZM8.8163,8.8244h2.314c.3748-.0081.6763-.3096.6763-.6844s-.3015-.6763-.6763-.6763h-2.314v-2.2978c0-.3748-.3015-.6763-.6763-.6763-.3749,0-.6763.3015-.6763.6763v2.2978h-2.306c-.1792,0-.3503.0733-.4807.1956-.1222.1303-.1956.3006-.1956.4807c0,.3748.3015.6763.6763.6844h2.306v2.306c0,.3748.3014.6763.6763.6763.3748,0,.6763-.3015.6763-.6763v-2.306Z" clip-rule="evenodd" fill="#05668d" fill-rule="evenodd"/></svg>
